<svg xmlns="http://www.w3.org/2000/svg" xmlns:xlink="http://www.w3.org/1999/xlink" width="1000" zoomAndPan="magnify" viewBox="0 0 750 599.999999" height="800" preserveAspectRatio="xMidYMid meet" version="1.0"><defs><clipPath id="44f1e0e0a5"><path d="M 386 348 L 437 348 L 437 392 L 386 392 Z M 386 348 " clip-rule="nonzero"/></clipPath><clipPath id="6a5ed1d03b"><path d="M 388.519531 344.554688 L 437.101562 348.574219 L 433.269531 394.914062 L 384.6875 390.898438 Z M 388.519531 344.554688 " clip-rule="nonzero"/></clipPath><clipPath id="8f62685d13"><path d="M 388.519531 344.554688 L 437.101562 348.574219 L 433.269531 394.914062 L 384.6875 390.898438 Z M 388.519531 344.554688 " clip-rule="nonzero"/></clipPath><clipPath id="687d240ebb"><path d="M 388.519531 344.554688 L 437.101562 348.574219 L 433.269531 394.914062 L 384.6875 390.898438 Z M 388.519531 344.554688 " clip-rule="nonzero"/></clipPath><clipPath id="172128b098"><path d="M 289 300 L 326 300 L 326 338 L 289 338 Z M 289 300 " clip-rule="nonzero"/></clipPath><clipPath id="bb55296f24"><path d="M 288.421875 301.992188 L 325.871094 300.015625 L 327.769531 335.964844 L 290.320312 337.941406 Z M 288.421875 301.992188 " clip-rule="nonzero"/></clipPath><clipPath id="57de2908d7"><path d="M 288.421875 301.992188 L 325.871094 300.015625 L 327.769531 335.964844 L 290.320312 337.941406 Z M 288.421875 301.992188 " clip-rule="nonzero"/></clipPath><clipPath id="75c82051fc"><path d="M 288.421875 301.992188 L 325.871094 300.015625 L 327.769531 335.964844 L 290.320312 337.941406 Z M 288.421875 301.992188 " clip-rule="nonzero"/></clipPath></defs><path fill="#1e5128" d="M 374.90625 558.023438 C 415.773438 555.742188 441.207031 513.035156 473.707031 488.152344 C 501.230469 467.082031 524.289062 442.824219 552.21875 422.289062 C 593.980469 391.585938 673.589844 388.382812 679.457031 336.878906 C 685.347656 285.167969 607.683594 264.425781 574.792969 224.09375 C 552.828125 197.164062 538.222656 166.730469 517.777344 138.628906 C 492.410156 103.761719 477.882812 57.59375 439.441406 38.066406 C 400.074219 18.070312 349.316406 14.542969 309.019531 32.589844 C 268.996094 50.511719 254.152344 98.566406 227.152344 133.121094 C 204.738281 161.8125 175.929688 185.5 162.960938 219.519531 C 149.976562 253.566406 146.574219 290.996094 153.296875 326.808594 C 159.832031 361.613281 180.796875 390.855469 200.636719 420.1875 C 220.628906 449.734375 242.15625 477.390625 270.136719 499.519531 C 301.96875 524.699219 334.378906 560.285156 374.90625 558.023438 " fill-opacity="1" fill-rule="nonzero"/><path stroke-linecap="butt" transform="matrix(0.61978, 0, 0, 0.61978, 234.527993, 159.522918)" fill-opacity="1" fill="#d8e9a8" fill-rule="nonzero" stroke-linejoin="miter" d="M 404.344655 0.000838211 L 48.642708 0.000838211 C 21.894315 0.000838211 -0.00104718 21.87099 -0.00104718 48.663502 L -0.00104718 404.34654 C -0.00104718 431.069723 21.894315 452.983993 48.642708 452.983993 L 404.344655 452.983993 C 431.067837 452.983993 452.98841 431.069723 452.98841 404.34654 L 452.98841 48.663502 C 452.98841 21.87099 431.067837 0.000838211 404.344655 0.000838211 Z M 148.426063 33.631711 L 304.473063 33.631711 L 304.473063 73.968591 L 148.426063 73.968591 Z M 410.899398 406.369687 L 42.043847 406.369687 L 42.043847 112.49031 L 410.899398 112.49031 Z M 410.899398 406.369687 " stroke="#d8e9a8" stroke-width="0.005" stroke-opacity="1" stroke-miterlimit="4"/><path stroke-linecap="butt" transform="matrix(0.61978, 0, 0, 0.61978, 234.527993, 159.522918)" fill-opacity="1" fill="#d8e9a8" fill-rule="nonzero" stroke-linejoin="miter" d="M 79.273526 246.232276 L 127.917281 246.232276 L 127.917281 294.894939 L 79.273526 294.894939 Z M 79.273526 246.232276 " stroke="#d8e9a8" stroke-width="0.005" stroke-opacity="1" stroke-miterlimit="4"/><path stroke-linecap="butt" transform="matrix(0.61978, 0, 0, 0.61978, 234.527993, 159.522918)" fill-opacity="1" fill="#d8e9a8" fill-rule="nonzero" stroke-linejoin="miter" d="M 79.273526 323.26311 L 127.917281 323.26311 L 127.917281 371.900563 L 79.273526 371.900563 Z M 79.273526 323.26311 " stroke="#d8e9a8" stroke-width="0.005" stroke-opacity="1" stroke-miterlimit="4"/><path stroke-linecap="butt" transform="matrix(0.61978, 0, 0, 0.61978, 234.527993, 159.522918)" fill-opacity="1" fill="#d8e9a8" fill-rule="nonzero" stroke-linejoin="miter" d="M 160.854864 169.22035 L 209.473409 169.22035 L 209.473409 217.864105 L 160.854864 217.864105 Z M 160.854864 169.22035 " stroke="#d8e9a8" stroke-width="0.005" stroke-opacity="1" stroke-miterlimit="4"/><path stroke-linecap="butt" transform="matrix(0.61978, 0, 0, 0.61978, 234.527993, 159.522918)" fill-opacity="1" fill="#d8e9a8" fill-rule="nonzero" stroke-linejoin="miter" d="M 160.854864 246.232276 L 209.473409 246.232276 L 209.473409 294.894939 L 160.854864 294.894939 Z M 160.854864 246.232276 " stroke="#d8e9a8" stroke-width="0.005" stroke-opacity="1" stroke-miterlimit="4"/><path stroke-linecap="butt" transform="matrix(0.61978, 0, 0, 0.61978, 234.527993, 159.522918)" fill-opacity="1" fill="#d8e9a8" fill-rule="nonzero" stroke-linejoin="miter" d="M 160.854864 323.26311 L 209.473409 323.26311 L 209.473409 371.900563 L 160.854864 371.900563 Z M 160.854864 323.26311 " stroke="#d8e9a8" stroke-width="0.005" stroke-opacity="1" stroke-miterlimit="4"/><path stroke-linecap="butt" transform="matrix(0.61978, 0, 0, 0.61978, 234.527993, 159.522918)" fill-opacity="1" fill="#d8e9a8" fill-rule="nonzero" stroke-linejoin="miter" d="M 242.366874 169.22035 L 291.03584 169.22035 L 291.03584 217.864105 L 242.366874 217.864105 Z M 242.366874 169.22035 " stroke="#d8e9a8" stroke-width="0.005" stroke-opacity="1" stroke-miterlimit="4"/><path stroke-linecap="butt" transform="matrix(0.61978, 0, 0, 0.61978, 234.527993, 159.522918)" fill-opacity="1" fill="#d8e9a8" fill-rule="nonzero" stroke-linejoin="miter" d="M 242.366874 246.232276 L 291.03584 246.232276 L 291.03584 294.894939 L 242.366874 294.894939 Z M 242.366874 246.232276 " stroke="#d8e9a8" stroke-width="0.005" stroke-opacity="1" stroke-miterlimit="4"/><path stroke-linecap="butt" transform="matrix(0.61978, 0, 0, 0.61978, 234.527993, 159.522918)" fill-opacity="1" fill="#d8e9a8" fill-rule="nonzero" stroke-linejoin="miter" d="M 242.366874 323.26311 L 291.03584 323.26311 L 291.03584 371.900563 L 242.366874 371.900563 Z M 242.366874 323.26311 " stroke="#d8e9a8" stroke-width="0.005" stroke-opacity="1" stroke-miterlimit="4"/><path stroke-linecap="butt" transform="matrix(0.61978, 0, 0, 0.61978, 234.527993, 159.522918)" fill-opacity="1" fill="#d8e9a8" fill-rule="nonzero" stroke-linejoin="miter" d="M 323.904094 169.22035 L 372.57306 169.22035 L 372.57306 217.864105 L 323.904094 217.864105 Z M 323.904094 169.22035 " stroke="#d8e9a8" stroke-width="0.005" stroke-opacity="1" stroke-miterlimit="4"/><path stroke-linecap="butt" transform="matrix(0.61978, 0, 0, 0.61978, 234.527993, 159.522918)" fill-opacity="1" fill="#d8e9a8" fill-rule="nonzero" stroke-linejoin="miter" d="M 323.904094 246.232276 L 372.57306 246.232276 L 372.57306 294.894939 L 323.904094 294.894939 Z M 323.904094 246.232276 " stroke="#d8e9a8" stroke-width="0.005" stroke-opacity="1" stroke-miterlimit="4"/><g clip-path="url(#44f1e0e0a5)"><g clip-path="url(#6a5ed1d03b)"><g clip-path="url(#8f62685d13)"><g clip-path="url(#687d240ebb)"><path fill="#000000" d="M 396.824219 391.902344 C 396.132812 391.835938 393.519531 387.09375 391.015625 381.363281 L 386.460938 370.941406 L 387.972656 369.65625 C 388.800781 368.945312 390.914062 368.484375 392.667969 368.628906 L 395.851562 368.894531 L 397.03125 374.105469 L 398.214844 379.316406 L 412.113281 366.332031 C 419.761719 359.195312 428.484375 352.273438 431.496094 350.957031 L 436.980469 348.5625 L 425.386719 359.800781 C 419.011719 365.984375 410.257812 375.761719 405.9375 381.53125 C 401.617188 387.300781 397.515625 391.96875 396.824219 391.902344 Z M 396.824219 391.902344 " fill-opacity="1" fill-rule="nonzero"/></g></g></g></g><g clip-path="url(#172128b098)"><g clip-path="url(#bb55296f24)"><g clip-path="url(#57de2908d7)"><g clip-path="url(#75c82051fc)"><path fill="#000000" d="M 299.675781 337.449219 C 299.144531 337.46875 296.65625 334.105469 294.152344 329.96875 L 289.601562 322.449219 L 290.617188 321.304688 C 291.175781 320.675781 292.738281 320.101562 294.089844 320.027344 L 296.542969 319.898438 L 299.425781 327.648438 L 308.671875 316.242188 C 313.757812 309.96875 319.683594 303.75 321.84375 302.425781 L 325.773438 300.019531 L 318.109375 309.847656 C 313.890625 315.253906 308.238281 323.667969 305.542969 328.542969 C 302.851562 333.421875 300.210938 337.425781 299.675781 337.449219 Z M 299.675781 337.449219 " fill-opacity="1" fill-rule="nonzero"/></g></g></g></g></svg>