<!DOCTYPE svg PUBLIC "-//W3C//DTD SVG 1.1//EN" "http://www.w3.org/Graphics/SVG/1.1/DTD/svg11.dtd">
<!-- Uploaded to: SVG Repo, www.svgrepo.com, Transformed by: SVG Repo Mixer Tools -->
<svg fill="#D8E9A8 " width="256px" height="256px" viewBox="-6.72 -6.72 29.44 29.44" id="certified-16px" xmlns="http://www.w3.org/2000/svg" transform="rotate(0)" stroke="#D8E9A8 " stroke-width="0.00016001">
<g id="SVGRepo_bgCarrier" stroke-width="0" transform="translate(0,0), scale(1)">
<path transform="translate(-6.72, -6.72), scale(0.92)" d="M16,28.362704361478485C19.637592532390148,27.936735988037267,22.602274956812835,25.933022561297534,25.118280875771895,23.27158635078343C28.04300011107135,20.1778123577423,31.893790578388746,16.738986414779745,30.90275041998614,12.598544466173099C29.91576859505086,8.475057727692981,24.8393000828454,7.403759257459445,20.928285578113556,5.766309548628335C17.402128787525847,4.289990705255351,13.674916361686321,2.3650198268887523,10.184687532320364,3.924379233109361C6.610348960226195,5.521317068966015,5.20841139399345,9.529143377432408,4.101368949855898,13.284215108628588C2.8621750810160984,17.487542533872077,1.0283125034722187,22.334568605620607,3.7429450846380874,25.77467512107139C6.464464445212306,29.223508878240814,11.636511772066639,28.873676375642308,16,28.362704361478485" fill="#1E5128" strokewidth="0"/>
</g>
<g id="SVGRepo_tracerCarrier" stroke-linecap="round" stroke-linejoin="round" stroke="#000000" stroke-width="0.44802800000000004"/>
<g id="SVGRepo_iconCarrier"> <path id="Path_154" data-name="Path 154" d="M-4.146,12.146l-1.871-1.87a1.48,1.48,0,0,0,.484-.6,2.4,2.4,0,0,0-.214-1.792A2.882,2.882,0,0,1-6,7a2.726,2.726,0,0,1,.247-.841,2.433,2.433,0,0,0,.219-1.838A2.428,2.428,0,0,0-6.988,3.177a2.73,2.73,0,0,1-.768-.421,2.887,2.887,0,0,1-.45-.805A2.4,2.4,0,0,0-9.321.533a2.386,2.386,0,0,0-1.792.214A2.882,2.882,0,0,1-12,1a2.726,2.726,0,0,1-.841-.247A2.428,2.428,0,0,0-14.679.533a2.428,2.428,0,0,0-1.144,1.455,2.73,2.73,0,0,1-.421.768,2.887,2.887,0,0,1-.805.45,2.4,2.4,0,0,0-1.418,1.115,2.4,2.4,0,0,0,.214,1.792A2.882,2.882,0,0,1-18,7a2.726,2.726,0,0,1-.247.841,2.433,2.433,0,0,0-.219,1.838,1.517,1.517,0,0,0,.48.6l-1.867,1.866a.5.5,0,0,0-.14.434.5.5,0,0,0,.27.367l1.851.926.926,1.851a.5.5,0,0,0,.367.27A.549.549,0,0,0-16.5,16a.5.5,0,0,0,.354-.146l2.313-2.314a4.664,4.664,0,0,0,.946-.287A2.882,2.882,0,0,1-12,13a2.726,2.726,0,0,1,.841.247,4.514,4.514,0,0,0,1.005.305l2.3,2.3A.5.5,0,0,0-7.5,16a.549.549,0,0,0,.08-.006.5.5,0,0,0,.367-.27l.926-1.851,1.851-.926a.5.5,0,0,0,.27-.367A.5.5,0,0,0-4.146,12.146ZM-12,12a3.535,3.535,0,0,0-1.25.32c-.4.157-.815.318-1.046.222s-.41-.5-.583-.9a3.5,3.5,0,0,0-.658-1.11A3.373,3.373,0,0,0-16.616,9.9c-.4-.175-.822-.356-.927-.609s.063-.677.225-1.086A3.409,3.409,0,0,0-17,7a3.535,3.535,0,0,0-.32-1.25c-.157-.4-.318-.815-.222-1.046s.5-.41.9-.583a3.5,3.5,0,0,0,1.11-.658A3.373,3.373,0,0,0-14.9,2.384c.175-.4.356-.822.609-.927a1.808,1.808,0,0,1,1.086.225A3.409,3.409,0,0,0-12,2a3.535,3.535,0,0,0,1.25-.32c.4-.157.812-.321,1.046-.222s.41.5.583.9a3.5,3.5,0,0,0,.658,1.11,3.373,3.373,0,0,0,1.079.632c.4.175.822.356.927.609s-.063.677-.225,1.086A3.409,3.409,0,0,0-7,7a3.535,3.535,0,0,0,.32,1.25c.157.4.318.815.222,1.046s-.5.41-.9.583a3.5,3.5,0,0,0-1.11.658A3.373,3.373,0,0,0-9.1,11.616c-.175.4-.356.822-.609.927s-.676-.063-1.086-.225A3.409,3.409,0,0,0-12,12Zm-4.363,2.655-.69-1.38a.5.5,0,0,0-.223-.223l-1.38-.69,1.572-1.572.072.032a2.73,2.73,0,0,1,.768.421,2.887,2.887,0,0,1,.45.8,3.006,3.006,0,0,0,.812,1.226Zm9.639-1.6a.5.5,0,0,0-.223.223l-.69,1.38-1.38-1.38a3.012,3.012,0,0,0,.84-1.264,2.73,2.73,0,0,1,.421-.768,2.887,2.887,0,0,1,.8-.45l.026-.012,1.581,1.581ZM-8,7a4,4,0,0,0-4-4,4,4,0,0,0-4,4,4,4,0,0,0,4,4A4,4,0,0,0-8,7Zm-4,3a3,3,0,0,1-3-3,3,3,0,0,1,3-3A3,3,0,0,1-9,7,3,3,0,0,1-12,10Z" transform="translate(20 -0.423)"/> </g>
</svg>