<!DOCTYPE svg PUBLIC "-//W3C//DTD SVG 1.1//EN" "http://www.w3.org/Graphics/SVG/1.1/DTD/svg11.dtd">
<!-- Uploaded to: SVG Repo, www.svgrepo.com, Transformed by: SVG Repo Mixer Tools -->
<svg height="800px" width="800px" version="1.1" id="_x32_" xmlns="http://www.w3.org/2000/svg" xmlns:xlink="http://www.w3.org/1999/xlink" viewBox="-128 -128 768.00 768.00" xml:space="preserve" fill="#D8E9A8">
<g id="SVGRepo_bgCarrier" stroke-width="0">
<path transform="translate(-128, -128), scale(24)" d="M16,27.491607721362797C18.086201075114104,27.289610984346908,19.966505053354854,30.04813787089052,21.93863860690812,29.33840069804294C23.852057866641353,28.649793796432057,23.869469023349566,25.815069488440674,25.118246945876844,24.210106426973944C26.272079341253033,22.727169917370485,28.293619045331635,21.962910010981243,29.024216777149135,20.23182455890282C29.760364723373453,18.487588374215825,29.41738076503394,16.492691397874417,29.16737918110828,14.616052680716427C28.921196073841838,12.768077386512498,28.70383640114322,10.800034463945126,27.570534607889023,9.319748729467396C26.45390505347226,7.861239786890783,24.195821109022663,7.793917489284743,22.927279941786,6.4654171300831464C21.32318725841591,4.785504990777502,21.528329789661633,1.1601370912174485,19.268084217362336,0.6248725906858468C17.036594267714563,0.09641790948745499,15.572977072952638,3.254611643887904,13.49875835525864,4.232583247068375C11.914976420941114,4.979319232131105,10.066814922844936,4.887564975819272,8.513405578754773,5.695586792697718C6.840523662726122,6.56575349431768,4.8766907219398306,7.4103503424016335,4.092630678505266,9.125277116894715C3.299786638354556,10.859416592355936,4.768832415244868,12.913969168813491,4.361522949088853,14.776746769906849C3.8905462015373518,16.930698516362675,1.2696538342117,18.505474994824823,1.5637892085694318,20.69060922510582C1.8413977826172987,22.752965713495147,4.45825390343236,23.595992100834703,5.766494165417901,25.21429004080325C7.147759129061455,26.922919801075675,7.381620935717879,30.0629689538244,9.526272542508408,30.540229933759527C11.880253854312535,31.064074190823675,13.599661491896667,27.72402086319954,16,27.491607721362797" fill="#1E5128" strokewidth="0"/>
</g>
<g id="SVGRepo_tracerCarrier" stroke-linecap="round" stroke-linejoin="round"/>
<g id="SVGRepo_iconCarrier"> <style type="text/css"> .st0{fill:#D8E9A8;} </style> <g> <path class="st0" d="M435.95,287.525c32.51,0,58.87-26.343,58.87-58.853c0-32.51-26.361-58.871-58.87-58.871 c-32.502,0-58.863,26.361-58.863,58.871C377.088,261.182,403.448,287.525,435.95,287.525z"/> <path class="st0" d="M511.327,344.251c-2.623-15.762-15.652-37.822-25.514-47.677c-1.299-1.306-7.105-1.608-8.673-0.636 c-11.99,7.374-26.074,11.714-41.19,11.714c-15.099,0-29.184-4.34-41.175-11.714c-1.575-0.972-7.373-0.67-8.672,0.636 c-2.757,2.757-5.765,6.427-8.698,10.683c7.935,14.94,14.228,30.81,16.499,44.476c2.27,13.7,1.533,26.67-2.138,38.494 c13.038,4.717,28.673,6.787,44.183,6.787C476.404,397.014,517.804,382.987,511.327,344.251z"/> <path class="st0" d="M254.487,262.691c52.687,0,95.403-42.716,95.403-95.402c0-52.67-42.716-95.386-95.403-95.386 c-52.678,0-95.378,42.716-95.378,95.386C159.109,219.975,201.808,262.691,254.487,262.691z"/> <path class="st0" d="M335.269,277.303c-2.07-2.061-11.471-2.588-14.027-1.006c-19.448,11.966-42.271,18.971-66.755,18.971 c-24.466,0-47.3-7.005-66.738-18.971c-2.555-1.583-11.956-1.055-14.026,1.006c-16.021,16.004-37.136,51.782-41.384,77.288 c-10.474,62.826,56.634,85.508,122.148,85.508c65.532,0,132.639-22.682,122.165-85.508 C372.404,329.085,351.289,293.307,335.269,277.303z"/> <path class="st0" d="M76.049,287.525c32.502,0,58.862-26.343,58.862-58.853c0-32.51-26.36-58.871-58.862-58.871 c-32.511,0-58.871,26.361-58.871,58.871C17.178,261.182,43.538,287.525,76.049,287.525z"/> <path class="st0" d="M115.094,351.733c2.414-14.353,9.225-31.253,17.764-46.88c-2.38-3.251-4.759-6.083-6.955-8.279 c-1.299-1.306-7.097-1.608-8.672-0.636c-11.991,7.374-26.076,11.714-41.182,11.714c-15.108,0-29.202-4.34-41.183-11.714 c-1.568-0.972-7.382-0.67-8.681,0.636c-9.887,9.854-22.882,31.915-25.514,47.677c-6.468,38.736,34.924,52.762,75.378,52.762 c14.437,0,29.016-1.777,41.459-5.84C113.587,379.108,112.757,365.835,115.094,351.733z"/> </g> </g>
</svg>